HIERARCHY
ROOT Hips
{
	OFFSET 0.000000 0.000000 0.000000
	CHANNELS 6 Xposition Yposition Zposition Zrotation Yrotation Xrotation 
	JOINT LeftUpLeg_virtual
	{
		OFFSET 0.000000 0.000000 0.000000
		CHANNELS 3 Zrotation Yrotation Xrotation
		JOINT LeftUpLeg
		{
			OFFSET 10.205400 -3.823500 0.155100
			CHANNELS 3 Zrotation Yrotation Xrotation
			JOINT LeftLeg
			{
				OFFSET 0.708757 -12.982077 0.567790
				CHANNELS 3 Zrotation Yrotation Xrotation
				JOINT LeftFoot
				{
					OFFSET -0.708756 -10.717838 -2.184338
					CHANNELS 3 Zrotation Yrotation Xrotation
					JOINT LeftToeBase
					{
						OFFSET 0.108149 -7.191104 7.560241
						CHANNELS 3 Zrotation Yrotation Xrotation
						End Site
						{
							OFFSET 0.000000 0.000000 0.000000
						}
					}
				}
			}
		}
	}
	JOINT RightUpLeg_virtual
	{
		OFFSET 0.000000 0.000000 0.000000
		CHANNELS 3 Zrotation Yrotation Xrotation
		JOINT RightUpLeg
		{
			OFFSET -10.205400 -3.823500 0.005500
			CHANNELS 3 Zrotation Yrotation Xrotation
			JOINT RightLeg
			{
				OFFSET -0.708756 -12.982134 0.610632
				CHANNELS 3 Zrotation Yrotation Xrotation
				JOINT RightFoot
				{
					OFFSET 0.708754 -10.717769 -1.945823
					CHANNELS 3 Zrotation Yrotation Xrotation
					JOINT RightToeBase
					{
						OFFSET -0.108140 -7.191069 7.372968
						CHANNELS 3 Zrotation Yrotation Xrotation
						End Site
						{
							OFFSET 0.000000 0.000000 0.000000
						}
					}
				}
			}
		}
	}
	JOINT Spine_virtual
	{
		OFFSET 0.000000 0.000000 0.000000
		CHANNELS 3 Zrotation Yrotation Xrotation
		JOINT Spine
		{
			OFFSET 0.000000 6.876099 0.125700
			CHANNELS 3 Zrotation Yrotation Xrotation
			JOINT Spine1
			{
				OFFSET 0.000000 8.022060 0.146608
				CHANNELS 3 Zrotation Yrotation Xrotation
				JOINT Spine2
				{
					OFFSET 0.000000 9.168068 0.167552
					CHANNELS 3 Zrotation Yrotation Xrotation
					JOINT Neck_virtual
					{
						OFFSET 0.000000 0.000000 0.000000
						CHANNELS 3 Zrotation Yrotation Xrotation
						JOINT Neck
						{
							OFFSET 0.000000 10.314075 0.188496
							CHANNELS 3 Zrotation Yrotation Xrotation
							JOINT Head
							{
								OFFSET 0.000000 7.643700 -2.377400
								CHANNELS 3 Zrotation Yrotation Xrotation
								End Site
								{
									OFFSET 0.000000 0.000000 0.000000
								}
							}
						}
					}
					JOINT LeftShoulder_virtual
					{
						OFFSET 0.000000 0.000000 0.000000
						CHANNELS 3 Zrotation Yrotation Xrotation
						JOINT LeftShoulder
						{
							OFFSET 4.392200 8.824978 0.174984
							CHANNELS 3 Zrotation Yrotation Xrotation
							JOINT LeftArm
							{
								OFFSET 8.771219 -2.981674 -0.026999
								CHANNELS 3 Zrotation Yrotation Xrotation
								JOINT LeftForeArm
								{
									OFFSET 8.512804 0.000000 -0.000000
									CHANNELS 3 Zrotation Yrotation Xrotation
									JOINT LeftHand
									{
										OFFSET 18.484802 0.000000 -0.000000
										CHANNELS 3 Zrotation Yrotation Xrotation
										End Site
										{
											OFFSET 0.000000 0.000000 0.000000
										}
									}
								}
							}
						}
					}
					JOINT RightShoulder_virtual
					{
						OFFSET 0.000000 0.000000 0.000000
						CHANNELS 3 Zrotation Yrotation Xrotation
						JOINT RightShoulder
						{
							OFFSET -4.392200 8.824993 0.141379
							CHANNELS 3 Zrotation Yrotation Xrotation
							JOINT RightArm
							{
								OFFSET -8.771282 -2.981682 -0.094208
								CHANNELS 3 Zrotation Yrotation Xrotation
								JOINT RightForeArm
								{
									OFFSET -8.494598 0.000000 0.000000
									CHANNELS 3 Zrotation Yrotation Xrotation
									JOINT RightHand
									{
										OFFSET -18.483803 0.000000 0.000001
										CHANNELS 3 Zrotation Yrotation Xrotation
										End Site
										{
											OFFSET 0.000000 0.000000 0.000000
										}
									}
								}
							}
						}
					}
				}
			}
		}
	}
}
MOTION
Frames: 7
Frame Time: 0.033333
-0.619796 36.142956 -24.077484 179.467441 3.808784 -178.054576 -2.022956 -1.430059 9.347061 -5.368722 7.445441 -19.548550 7.499216 3.283737 22.510355 -5.067870 -6.210976 10.423245 0.000000 0.000000 0.000000 2.846809 -2.896897 8.191705 2.568702 0.371618 -11.478201 -9.088626 6.223335 19.523643 9.883629 1.804527 6.682764 0.000000 0.000000 0.000000 -0.366291 1.026627 -6.523693 0.030832 -3.464701 -10.059642 -1.297613 -1.481441 10.600032 -0.020361 0.299295 0.237665 -1.677297 0.976629 12.166749 -2.263420 -1.245622 2.757777 0.000000 0.000000 0.000000 0.234514 1.239353 10.034102 -14.180747 -5.717530 5.915818 -53.580099 17.779413 14.793761 2.037213 -53.172114 4.864916 0.000000 0.000000 0.000000 -4.066350 2.625142 9.464930 27.006800 6.308657 7.752019 52.544078 -14.766760 18.980133 -6.972299 37.106307 -6.446850 0.000000 0.000000 0.000000 
-0.621520 36.115627 -24.052040 179.555892 4.511321 -177.231989 -2.549446 -0.294522 10.348051 -5.512366 8.318160 -18.731893 7.729613 2.186760 23.329894 -5.014079 -6.650212 11.778076 0.000000 0.000000 0.000000 2.837684 -3.806012 9.031551 2.143285 -0.304524 -10.834230 -9.321360 7.591618 20.259224 9.325939 1.741893 7.700420 0.000000 0.000000 0.000000 -0.251038 1.284230 -6.781671 0.102692 -3.266126 -10.648067 -1.304690 -1.324205 10.058542 -0.087842 0.391788 0.486325 -1.703237 0.944285 12.342224 -2.178465 -1.187581 3.106791 0.000000 0.000000 0.000000 0.295396 1.105708 10.360249 -14.163978 -5.747232 5.943799 -53.614314 17.735363 14.684668 2.288734 -53.161500 4.586207 0.000000 0.000000 0.000000 -4.184000 2.740566 9.795295 27.038911 6.310091 7.725640 52.574674 -14.910122 19.141149 -6.884297 37.112311 -6.318728 0.000000 0.000000 0.000000 
-0.621864 36.110744 -24.037434 179.531823 4.579238 -177.247534 -2.540472 -0.297715 10.418447 -5.609906 8.331310 -18.813549 7.790498 2.193980 23.361672 -4.974635 -6.643779 11.668168 0.000000 0.000000 0.000000 2.839782 -3.789656 9.094545 2.112778 -0.316310 -10.993224 -9.328739 7.665057 20.338705 9.438233 1.651243 7.695189 0.000000 0.000000 0.000000 -0.238998 1.214845 -6.770721 0.099564 -3.100887 -10.701017 -1.291946 -1.240336 10.078409 -0.108639 0.474928 0.470777 -1.757743 0.799265 12.335282 -2.234237 -1.190967 3.088909 0.000000 0.000000 0.000000 0.247546 1.042364 10.404766 -14.145630 -5.736464 5.905256 -53.675195 17.607475 14.415794 2.135821 -53.026536 4.696324 0.000000 0.000000 0.000000 -4.143184 2.692299 9.767157 27.098960 6.164896 7.749045 52.547275 -14.892606 19.423776 -6.908809 36.812169 -6.374062 0.000000 0.000000 0.000000 
-0.626603 36.109566 -24.034138 179.553188 4.604540 -177.244925 -2.508750 -0.343270 10.482026 -5.726346 8.347587 -18.907524 7.919746 2.151042 23.423183 -4.904913 -6.659240 11.528338 0.000000 0.000000 0.000000 2.877341 -3.830160 9.168152 2.075546 -0.364990 -11.187681 -9.327314 7.734563 20.458722 9.574676 1.565938 7.755835 0.000000 0.000000 0.000000 -0.167585 1.197892 -7.204925 0.007273 -3.056392 -10.363186 -1.356562 -1.301190 10.615358 -0.010354 0.399549 0.217527 -1.726796 0.942597 12.097737 -2.325744 -1.225023 2.873130 0.000000 0.000000 0.000000 0.249001 1.323206 10.041517 -14.084901 -5.663806 5.842627 -53.926574 17.538300 14.309061 2.051496 -52.598484 4.733659 0.000000 0.000000 0.000000 -4.199706 2.670332 9.538141 27.080732 6.366068 7.711389 52.398124 -15.006101 19.667313 -6.751055 36.509041 -6.246772 0.000000 0.000000 0.000000 
-0.631711 36.106609 -24.046404 179.534418 4.678112 -177.240581 -2.519179 -0.345965 10.534006 -5.865162 8.403625 -18.975673 8.070003 2.104717 23.529595 -4.832485 -6.683329 11.404184 0.000000 0.000000 0.000000 2.875320 -3.867578 9.226442 2.035238 -0.435183 -11.400326 -9.329956 7.861849 20.613928 9.756132 1.480189 7.871411 0.000000 0.000000 0.000000 -0.219854 1.191121 -7.090112 0.092467 -2.988946 -10.572841 -1.414991 -1.318423 10.450895 -0.041923 0.394171 0.331510 -1.734611 1.051625 12.232198 -2.273786 -0.997329 2.855227 0.000000 0.000000 0.000000 0.277475 1.309049 10.126167 -14.103410 -5.551185 5.822420 -54.168400 17.532597 14.123692 2.114998 -52.230327 4.629383 0.000000 0.000000 0.000000 -4.173232 2.808017 9.702077 27.158191 6.419060 7.757466 52.158931 -15.083798 19.905615 -6.787980 36.406295 -6.321130 0.000000 0.000000 0.000000 
-0.636591 36.101501 -24.074053 179.487153 4.780749 -177.230336 -2.570064 -0.320263 10.568538 -5.993923 8.490301 -19.021816 8.235444 2.066857 23.675340 -4.795046 -6.704210 11.318431 0.000000 0.000000 0.000000 2.831461 -3.918424 9.271938 2.009790 -0.525698 -11.618942 -9.330224 8.025613 20.791555 9.958730 1.400382 8.064888 0.000000 0.000000 0.000000 -0.256294 1.414607 -6.934454 -0.017704 -2.807957 -10.733203 -1.275204 -1.235720 10.029570 -0.086625 0.485816 0.803147 -1.684944 0.809210 12.236924 -2.209162 -1.072420 2.970933 0.000000 0.000000 0.000000 0.252465 1.033029 10.322833 -14.116638 -5.818461 5.713933 -54.105904 17.476542 14.071767 2.049468 -51.852761 4.635656 0.000000 0.000000 0.000000 -4.182855 2.567759 9.684227 27.196186 6.279247 7.697919 52.043019 -15.121892 19.851175 -6.823610 36.401538 -6.385385 0.000000 0.000000 0.000000 
-0.636231 36.104309 -24.108435 179.484175 4.891664 -177.192142 -2.608480 -0.315647 10.579053 -6.080658 8.576774 -19.046626 8.424320 2.028545 23.779295 -4.806630 -6.721102 11.276143 0.000000 0.000000 0.000000 2.810672 -3.998552 9.291713 2.004883 -0.646818 -11.835943 -9.328567 8.175721 20.971565 10.162466 1.335442 8.343812 0.000000 0.000000 0.000000 -0.235687 1.244109 -7.310297 -0.083735 -2.750990 -10.541768 -1.287899 -1.253602 10.428456 -0.056613 0.429150 0.428334 -1.678191 1.144002 12.298533 -2.151091 -1.023158 2.776283 0.000000 0.000000 0.000000 0.225000 1.165877 10.242876 -14.086370 -5.654274 5.747017 -54.298498 17.666416 14.076197 2.099798 -51.525967 4.438396 0.000000 0.000000 0.000000 -4.154252 2.625565 9.857011 27.161615 6.295438 7.587873 51.788646 -15.206105 19.880003 -6.837250 36.506664 -6.442736 0.000000 0.000000 0.000000 
